# Blender v2.93.11 OBJ File: 'untitled.blend'
# www.blender.org
mtllib monetka.mtl
o Cylinder_Cylinder.001
v -0.000000 1.000000 -0.775743
v 0.340000 1.000000 -0.775743
v -0.000000 0.848660 -0.760837
v 0.340000 0.848660 -0.760837
v -0.000000 0.703136 -0.716693
v 0.340000 0.703136 -0.716693
v -0.000000 0.569020 -0.645007
v 0.340000 0.569020 -0.645007
v -0.000000 0.451467 -0.548533
v 0.340000 0.451467 -0.548533
v -0.000000 0.354993 -0.430980
v 0.340000 0.354993 -0.430980
v -0.000000 0.283307 -0.296864
v 0.340000 0.283307 -0.296864
v -0.000000 0.239163 -0.151340
v 0.340000 0.239163 -0.151340
v -0.000000 0.224257 -0.000000
v 0.340000 0.224257 -0.000000
v -0.000000 0.239163 0.151340
v 0.340000 0.239163 0.151340
v -0.000000 0.283307 0.296864
v 0.340000 0.283307 0.296864
v -0.000000 0.354993 0.430979
v 0.340000 0.354993 0.430979
v -0.000000 0.451467 0.548533
v 0.340000 0.451467 0.548533
v -0.000000 0.569020 0.645007
v 0.340000 0.569020 0.645007
v -0.000000 0.703136 0.716693
v 0.340000 0.703136 0.716693
v -0.000000 0.848660 0.760837
v 0.340000 0.848660 0.760837
v -0.000000 1.000000 0.775743
v 0.340000 1.000000 0.775743
v -0.000000 1.151340 0.760837
v 0.340000 1.151340 0.760837
v -0.000000 1.296864 0.716693
v 0.340000 1.296864 0.716693
v 0.000000 1.430980 0.645007
v 0.340000 1.430980 0.645007
v 0.000000 1.548533 0.548533
v 0.340000 1.548533 0.548533
v 0.000000 1.645007 0.430980
v 0.340000 1.645007 0.430980
v 0.000000 1.716693 0.296864
v 0.340000 1.716693 0.296864
v 0.000000 1.760837 0.151340
v 0.340000 1.760837 0.151340
v 0.000000 1.775743 -0.000000
v 0.340000 1.775743 -0.000000
v 0.000000 1.760837 -0.151340
v 0.340000 1.760837 -0.151340
v 0.000000 1.716693 -0.296864
v 0.340000 1.716693 -0.296864
v 0.000000 1.645007 -0.430980
v 0.340000 1.645007 -0.430980
v 0.000000 1.548533 -0.548533
v 0.340000 1.548533 -0.548533
v 0.000000 1.430980 -0.645007
v 0.340000 1.430980 -0.645007
v -0.000000 1.296864 -0.716693
v 0.340000 1.296864 -0.716693
v -0.000000 1.151340 -0.760837
v 0.340000 1.151340 -0.760837
v -0.000000 1.000000 -0.860190
v -0.000000 0.832185 -0.843662
v 0.340000 0.832185 -0.843662
v 0.340000 1.000000 -0.860190
v -0.000000 0.670819 -0.794712
v 0.340000 0.670819 -0.794712
v -0.000000 0.522104 -0.715222
v 0.340000 0.522104 -0.715222
v -0.000000 0.391754 -0.608246
v 0.340000 0.391754 -0.608246
v -0.000000 0.284778 -0.477896
v 0.340000 0.284778 -0.477896
v -0.000000 0.205288 -0.329181
v 0.340000 0.205288 -0.329181
v -0.000000 0.156338 -0.167815
v 0.340000 0.156338 -0.167815
v -0.000000 0.139810 -0.000000
v 0.340000 0.139810 -0.000000
v -0.000000 0.156338 0.167815
v 0.340000 0.156338 0.167815
v -0.000000 0.205288 0.329180
v 0.340000 0.205288 0.329180
v -0.000000 0.284778 0.477896
v 0.340000 0.284778 0.477896
v -0.000000 0.391754 0.608246
v 0.340000 0.391754 0.608246
v -0.000000 0.522104 0.715222
v 0.340000 0.522104 0.715222
v -0.000000 0.670819 0.794712
v 0.340000 0.670819 0.794712
v -0.000000 0.832185 0.843661
v 0.340000 0.832185 0.843661
v -0.000000 1.000000 0.860190
v 0.340000 1.000000 0.860190
v -0.000000 1.167815 0.843661
v 0.340000 1.167815 0.843661
v -0.000000 1.329180 0.794712
v 0.340000 1.329180 0.794712
v 0.000000 1.477896 0.715222
v 0.340000 1.477896 0.715222
v 0.000000 1.608246 0.608246
v 0.340000 1.608246 0.608246
v 0.000000 1.715222 0.477896
v 0.340000 1.715222 0.477896
v 0.000000 1.794712 0.329180
v 0.340000 1.794712 0.329180
v 0.000000 1.843662 0.167815
v 0.340000 1.843662 0.167815
v 0.000000 1.860190 -0.000000
v 0.340000 1.860190 -0.000000
v 0.000000 1.843662 -0.167815
v 0.340000 1.843662 -0.167815
v 0.000000 1.794712 -0.329181
v 0.340000 1.794712 -0.329181
v 0.000000 1.715222 -0.477896
v 0.340000 1.715222 -0.477896
v 0.000000 1.608246 -0.608246
v 0.340000 1.608246 -0.608246
v 0.000000 1.477896 -0.715222
v 0.340000 1.477896 -0.715222
v -0.000000 1.329180 -0.794712
v 0.340000 1.329180 -0.794712
v -0.000000 1.167815 -0.843662
v 0.340000 1.167815 -0.843662
v 0.034000 1.000000 -0.775743
v 0.034000 0.848660 -0.760837
v 0.034000 0.703136 -0.716693
v 0.034000 0.569020 -0.645007
v 0.034000 0.451467 -0.548533
v 0.034000 0.354993 -0.430980
v 0.034000 0.283307 -0.296864
v 0.034000 0.239163 -0.151340
v 0.034000 0.224257 -0.000000
v 0.034000 0.239163 0.151340
v 0.034000 0.283307 0.296864
v 0.034000 0.354993 0.430979
v 0.034000 0.451467 0.548533
v 0.034000 0.569020 0.645007
v 0.034000 0.703136 0.716693
v 0.034000 0.848660 0.760837
v 0.034000 1.000000 0.775743
v 0.034000 1.151340 0.760837
v 0.034000 1.296864 0.716693
v 0.034000 1.430980 0.645007
v 0.034000 1.548533 0.548533
v 0.034000 1.645007 0.430980
v 0.034000 1.716693 0.296864
v 0.034000 1.760837 0.151340
v 0.034000 1.775743 -0.000000
v 0.034000 1.760837 -0.151340
v 0.034000 1.716693 -0.296864
v 0.034000 1.645007 -0.430980
v 0.034000 1.548533 -0.548533
v 0.034000 1.430980 -0.645007
v 0.034000 1.296864 -0.716693
v 0.034000 1.151340 -0.760837
v 0.306000 0.848660 -0.760837
v 0.306000 1.000000 -0.775743
v 0.306000 0.703136 -0.716693
v 0.306000 0.569020 -0.645007
v 0.306000 0.451467 -0.548533
v 0.306000 0.354993 -0.430980
v 0.306000 0.283307 -0.296864
v 0.306000 0.239163 -0.151340
v 0.306000 0.224257 -0.000000
v 0.306000 0.239163 0.151340
v 0.306000 0.283307 0.296864
v 0.306000 0.354993 0.430979
v 0.306000 0.451467 0.548533
v 0.306000 0.569020 0.645007
v 0.306000 0.703136 0.716693
v 0.306000 0.848660 0.760837
v 0.306000 1.000000 0.775743
v 0.306000 1.151340 0.760837
v 0.306000 1.296864 0.716693
v 0.306000 1.430980 0.645007
v 0.306000 1.548533 0.548533
v 0.306000 1.645007 0.430980
v 0.306000 1.716693 0.296864
v 0.306000 1.760837 0.151340
v 0.306000 1.775743 -0.000000
v 0.306000 1.760837 -0.151340
v 0.306000 1.716693 -0.296864
v 0.306000 1.645007 -0.430980
v 0.306000 1.548533 -0.548533
v 0.306000 1.430980 -0.645007
v 0.306000 1.296864 -0.716693
v 0.306000 1.151340 -0.760837
vt 1.000000 0.500000
vt 1.000000 1.000000
vt 0.968750 1.000000
vt 0.968750 0.500000
vt 0.937500 1.000000
vt 0.937500 0.500000
vt 0.906250 1.000000
vt 0.906250 0.500000
vt 0.875000 1.000000
vt 0.875000 0.500000
vt 0.843750 1.000000
vt 0.843750 0.500000
vt 0.812500 1.000000
vt 0.812500 0.500000
vt 0.781250 1.000000
vt 0.781250 0.500000
vt 0.750000 1.000000
vt 0.750000 0.500000
vt 0.718750 1.000000
vt 0.718750 0.500000
vt 0.687500 1.000000
vt 0.687500 0.500000
vt 0.656250 1.000000
vt 0.656250 0.500000
vt 0.625000 1.000000
vt 0.625000 0.500000
vt 0.593750 1.000000
vt 0.593750 0.500000
vt 0.562500 1.000000
vt 0.562500 0.500000
vt 0.531250 1.000000
vt 0.531250 0.500000
vt 0.500000 1.000000
vt 0.500000 0.500000
vt 0.468750 1.000000
vt 0.468750 0.500000
vt 0.437500 1.000000
vt 0.437500 0.500000
vt 0.406250 1.000000
vt 0.406250 0.500000
vt 0.375000 1.000000
vt 0.375000 0.500000
vt 0.343750 1.000000
vt 0.343750 0.500000
vt 0.312500 1.000000
vt 0.312500 0.500000
vt 0.281250 1.000000
vt 0.281250 0.500000
vt 0.250000 1.000000
vt 0.250000 0.500000
vt 0.218750 1.000000
vt 0.218750 0.500000
vt 0.187500 1.000000
vt 0.187500 0.500000
vt 0.156250 1.000000
vt 0.156250 0.500000
vt 0.125000 1.000000
vt 0.125000 0.500000
vt 0.093750 1.000000
vt 0.093750 0.500000
vt 0.062500 1.000000
vt 0.062500 0.500000
vt 0.207775 0.037720
vt 0.250000 0.033561
vt 0.250000 0.033561
vt 0.207775 0.037720
vt 0.031250 1.000000
vt 0.031250 0.500000
vt 0.000000 1.000000
vt 0.000000 0.500000
vt 0.667173 0.449963
vt 0.707775 0.462280
vt 0.707775 0.462280
vt 0.667173 0.449963
vt 0.792225 0.462280
vt 0.750000 0.466439
vt 0.750000 0.490000
vt 0.796822 0.485388
vt 0.250000 0.466439
vt 0.292225 0.462280
vt 0.296822 0.485388
vt 0.250000 0.490000
vt 0.832827 0.449963
vt 0.841844 0.471731
vt 0.332827 0.449963
vt 0.341844 0.471731
vt 0.870247 0.429962
vt 0.883337 0.449553
vt 0.370247 0.429962
vt 0.383337 0.449553
vt 0.903045 0.403045
vt 0.919706 0.419706
vt 0.403045 0.403045
vt 0.419706 0.419706
vt 0.929962 0.370247
vt 0.949553 0.383337
vt 0.429962 0.370247
vt 0.449553 0.383337
vt 0.949963 0.332827
vt 0.971731 0.341844
vt 0.449963 0.332827
vt 0.471731 0.341844
vt 0.962280 0.292225
vt 0.985388 0.296822
vt 0.462280 0.292225
vt 0.485388 0.296822
vt 0.966439 0.250000
vt 0.990000 0.250000
vt 0.466439 0.250000
vt 0.490000 0.250000
vt 0.962280 0.207775
vt 0.985388 0.203178
vt 0.462280 0.207775
vt 0.485388 0.203178
vt 0.949963 0.167172
vt 0.971731 0.158156
vt 0.449963 0.167173
vt 0.471731 0.158156
vt 0.929962 0.129753
vt 0.949553 0.116663
vt 0.429962 0.129753
vt 0.449553 0.116663
vt 0.903045 0.096955
vt 0.919706 0.080294
vt 0.403045 0.096955
vt 0.419706 0.080294
vt 0.870247 0.070038
vt 0.883337 0.050447
vt 0.370247 0.070038
vt 0.383337 0.050447
vt 0.832827 0.050037
vt 0.841844 0.028269
vt 0.332827 0.050037
vt 0.341844 0.028269
vt 0.792225 0.037720
vt 0.796822 0.014612
vt 0.292225 0.037720
vt 0.296822 0.014612
vt 0.750000 0.033561
vt 0.750000 0.010000
vt 0.250000 0.010000
vt 0.707775 0.037720
vt 0.703178 0.014612
vt 0.203178 0.014612
vt 0.667173 0.050037
vt 0.658156 0.028269
vt 0.167172 0.050037
vt 0.158156 0.028269
vt 0.629753 0.070038
vt 0.616663 0.050447
vt 0.129753 0.070038
vt 0.116663 0.050447
vt 0.596955 0.096955
vt 0.580294 0.080294
vt 0.096955 0.096955
vt 0.080294 0.080294
vt 0.570038 0.129753
vt 0.550447 0.116663
vt 0.070038 0.129753
vt 0.050447 0.116663
vt 0.550037 0.167173
vt 0.528269 0.158156
vt 0.050037 0.167172
vt 0.028269 0.158156
vt 0.537720 0.207775
vt 0.514612 0.203178
vt 0.037720 0.207775
vt 0.014612 0.203178
vt 0.533562 0.250000
vt 0.510000 0.250000
vt 0.033561 0.250000
vt 0.010000 0.250000
vt 0.537720 0.292225
vt 0.514612 0.296822
vt 0.037720 0.292225
vt 0.014612 0.296822
vt 0.550037 0.332827
vt 0.528269 0.341844
vt 0.050037 0.332827
vt 0.028269 0.341844
vt 0.570038 0.370247
vt 0.550447 0.383337
vt 0.070038 0.370247
vt 0.050447 0.383337
vt 0.596955 0.403045
vt 0.580294 0.419706
vt 0.096955 0.403045
vt 0.080294 0.419706
vt 0.629753 0.429962
vt 0.616663 0.449553
vt 0.129753 0.429962
vt 0.116663 0.449553
vt 0.658156 0.471731
vt 0.167172 0.449963
vt 0.158156 0.471731
vt 0.703178 0.485388
vt 0.207775 0.462280
vt 0.203178 0.485388
vt 0.750000 0.466439
vt 0.792225 0.462280
vt 0.832827 0.449963
vt 0.870247 0.429962
vt 0.903045 0.403045
vt 0.929962 0.370247
vt 0.949963 0.332827
vt 0.962280 0.292225
vt 0.966439 0.250000
vt 0.962280 0.207775
vt 0.949963 0.167172
vt 0.929962 0.129753
vt 0.903045 0.096955
vt 0.870247 0.070038
vt 0.832827 0.050037
vt 0.792225 0.037720
vt 0.750000 0.033561
vt 0.707775 0.037720
vt 0.667173 0.050037
vt 0.629753 0.070038
vt 0.596955 0.096955
vt 0.570038 0.129753
vt 0.550037 0.167173
vt 0.537720 0.207775
vt 0.533562 0.250000
vt 0.537720 0.292225
vt 0.550037 0.332827
vt 0.570038 0.370247
vt 0.596955 0.403045
vt 0.629753 0.429962
vt 0.292225 0.462280
vt 0.250000 0.466439
vt 0.207775 0.462280
vt 0.167172 0.449963
vt 0.129753 0.429962
vt 0.096955 0.403045
vt 0.070038 0.370247
vt 0.050037 0.332827
vt 0.037720 0.292225
vt 0.033561 0.250000
vt 0.037720 0.207775
vt 0.050037 0.167172
vt 0.070038 0.129753
vt 0.096955 0.096955
vt 0.129753 0.070038
vt 0.167172 0.050037
vt 0.292225 0.037720
vt 0.332827 0.050037
vt 0.370247 0.070038
vt 0.403045 0.096955
vt 0.429962 0.129753
vt 0.449963 0.167173
vt 0.462280 0.207775
vt 0.466439 0.250000
vt 0.462280 0.292225
vt 0.449963 0.332827
vt 0.429962 0.370247
vt 0.403045 0.403045
vt 0.370247 0.429962
vt 0.332827 0.449963
vn 0.0000 -0.0980 -0.9952
vn 0.0000 -0.2903 -0.9569
vn 0.0000 -0.4714 -0.8819
vn 0.0000 -0.6344 -0.7730
vn 0.0000 -0.7730 -0.6344
vn 0.0000 -0.8819 -0.4714
vn 0.0000 -0.9569 -0.2903
vn 0.0000 -0.9952 -0.0980
vn 0.0000 -0.9952 0.0980
vn 0.0000 -0.9569 0.2903
vn 0.0000 -0.8819 0.4714
vn 0.0000 -0.7730 0.6344
vn 0.0000 -0.6344 0.7730
vn 0.0000 -0.4714 0.8819
vn -0.0000 -0.2903 0.9569
vn 0.0000 -0.0980 0.9952
vn 0.0000 0.0980 0.9952
vn 0.0000 0.2903 0.9569
vn 0.0000 0.4714 0.8819
vn 0.0000 0.6344 0.7730
vn 0.0000 0.7730 0.6344
vn 0.0000 0.8819 0.4714
vn 0.0000 0.9569 0.2903
vn 0.0000 0.9952 0.0980
vn 0.0000 0.9952 -0.0980
vn 0.0000 0.9569 -0.2903
vn 0.0000 0.8819 -0.4714
vn 0.0000 0.7730 -0.6344
vn 0.0000 0.6344 -0.7730
vn 0.0000 0.4714 -0.8819
vn 0.0000 0.2903 -0.9569
vn 0.0000 0.0980 -0.9952
vn -1.0000 0.0000 0.0000
vn 1.0000 -0.0000 -0.0000
usemtl Material
s off
f 65/1/1 68/2/1 67/3/1 66/4/1
f 66/4/2 67/3/2 70/5/2 69/6/2
f 69/6/3 70/5/3 72/7/3 71/8/3
f 71/8/4 72/7/4 74/9/4 73/10/4
f 73/10/5 74/9/5 76/11/5 75/12/5
f 75/12/6 76/11/6 78/13/6 77/14/6
f 77/14/7 78/13/7 80/15/7 79/16/7
f 79/16/8 80/15/8 82/17/8 81/18/8
f 81/18/9 82/17/9 84/19/9 83/20/9
f 83/20/10 84/19/10 86/21/10 85/22/10
f 85/22/11 86/21/11 88/23/11 87/24/11
f 87/24/12 88/23/12 90/25/12 89/26/12
f 89/26/13 90/25/13 92/27/13 91/28/13
f 91/28/14 92/27/14 94/29/14 93/30/14
f 93/30/15 94/29/15 96/31/15 95/32/15
f 95/32/16 96/31/16 98/33/16 97/34/16
f 97/34/17 98/33/17 100/35/17 99/36/17
f 99/36/18 100/35/18 102/37/18 101/38/18
f 101/38/19 102/37/19 104/39/19 103/40/19
f 103/40/20 104/39/20 106/41/20 105/42/20
f 105/42/21 106/41/21 108/43/21 107/44/21
f 107/44/22 108/43/22 110/45/22 109/46/22
f 109/46/23 110/45/23 112/47/23 111/48/23
f 111/48/24 112/47/24 114/49/24 113/50/24
f 113/50/25 114/49/25 116/51/25 115/52/25
f 115/52/26 116/51/26 118/53/26 117/54/26
f 117/54/27 118/53/27 120/55/27 119/56/27
f 119/56/28 120/55/28 122/57/28 121/58/28
f 121/58/29 122/57/29 124/59/29 123/60/29
f 123/60/30 124/59/30 126/61/30 125/62/30
f 36/63/1 34/64/1 177/65/1 178/66/1
f 125/62/31 126/61/31 128/67/31 127/68/31
f 127/68/32 128/67/32 68/69/32 65/70/32
f 61/71/15 63/72/15 160/73/15 159/74/15
f 3/75/33 1/76/33 65/77/33 66/78/33
f 2/79/34 4/80/34 67/81/34 68/82/34
f 5/83/33 3/75/33 66/78/33 69/84/33
f 4/80/34 6/85/34 70/86/34 67/81/34
f 7/87/33 5/83/33 69/84/33 71/88/33
f 6/85/34 8/89/34 72/90/34 70/86/34
f 9/91/33 7/87/33 71/88/33 73/92/33
f 8/89/34 10/93/34 74/94/34 72/90/34
f 11/95/33 9/91/33 73/92/33 75/96/33
f 10/93/34 12/97/34 76/98/34 74/94/34
f 13/99/33 11/95/33 75/96/33 77/100/33
f 12/97/34 14/101/34 78/102/34 76/98/34
f 15/103/33 13/99/33 77/100/33 79/104/33
f 14/101/34 16/105/34 80/106/34 78/102/34
f 17/107/33 15/103/33 79/104/33 81/108/33
f 16/105/34 18/109/34 82/110/34 80/106/34
f 19/111/33 17/107/33 81/108/33 83/112/33
f 18/109/34 20/113/34 84/114/34 82/110/34
f 21/115/33 19/111/33 83/112/33 85/116/33
f 20/113/34 22/117/34 86/118/34 84/114/34
f 23/119/33 21/115/33 85/116/33 87/120/33
f 22/117/34 24/121/34 88/122/34 86/118/34
f 25/123/33 23/119/33 87/120/33 89/124/33
f 24/121/34 26/125/34 90/126/34 88/122/34
f 27/127/33 25/123/33 89/124/33 91/128/33
f 26/125/34 28/129/34 92/130/34 90/126/34
f 29/131/33 27/127/33 91/128/33 93/132/33
f 28/129/34 30/133/34 94/134/34 92/130/34
f 31/135/33 29/131/33 93/132/33 95/136/33
f 30/133/34 32/137/34 96/138/34 94/134/34
f 33/139/33 31/135/33 95/136/33 97/140/33
f 32/137/34 34/64/34 98/141/34 96/138/34
f 35/142/33 33/139/33 97/140/33 99/143/33
f 34/64/34 36/63/34 100/144/34 98/141/34
f 37/145/33 35/142/33 99/143/33 101/146/33
f 36/63/34 38/147/34 102/148/34 100/144/34
f 39/149/33 37/145/33 101/146/33 103/150/33
f 38/147/34 40/151/34 104/152/34 102/148/34
f 41/153/33 39/149/33 103/150/33 105/154/33
f 40/151/34 42/155/34 106/156/34 104/152/34
f 43/157/33 41/153/33 105/154/33 107/158/33
f 42/155/34 44/159/34 108/160/34 106/156/34
f 45/161/33 43/157/33 107/158/33 109/162/33
f 44/159/34 46/163/34 110/164/34 108/160/34
f 47/165/33 45/161/33 109/162/33 111/166/33
f 46/163/34 48/167/34 112/168/34 110/164/34
f 49/169/33 47/165/33 111/166/33 113/170/33
f 48/167/34 50/171/34 114/172/34 112/168/34
f 51/173/33 49/169/33 113/170/33 115/174/33
f 50/171/34 52/175/34 116/176/34 114/172/34
f 53/177/33 51/173/33 115/174/33 117/178/33
f 52/175/34 54/179/34 118/180/34 116/176/34
f 55/181/33 53/177/33 117/178/33 119/182/33
f 54/179/34 56/183/34 120/184/34 118/180/34
f 57/185/33 55/181/33 119/182/33 121/186/33
f 56/183/34 58/187/34 122/188/34 120/184/34
f 59/189/33 57/185/33 121/186/33 123/190/33
f 58/187/34 60/191/34 124/192/34 122/188/34
f 61/71/33 59/189/33 123/190/33 125/193/33
f 60/191/34 62/194/34 126/195/34 124/192/34
f 63/72/33 61/71/33 125/193/33 127/196/33
f 62/194/34 64/197/34 128/198/34 126/195/34
f 1/76/33 63/72/33 127/196/33 65/77/33
f 64/197/34 2/79/34 68/82/34 128/198/34
f 129/199/33 130/200/33 131/201/33 132/202/33 133/203/33 134/204/33 135/205/33 136/206/33 137/207/33 138/208/33 139/209/33 140/210/33 141/211/33 142/212/33 143/213/33 144/214/33 145/215/33 146/216/33 147/217/33 148/218/33 149/219/33 150/220/33 151/221/33 152/222/33 153/223/33 154/224/33 155/225/33 156/226/33 157/227/33 158/228/33 159/74/33 160/73/33
f 21/115/27 23/119/27 140/210/27 139/209/27
f 35/142/2 37/145/2 147/217/2 146/216/2
f 49/169/9 51/173/9 154/224/9 153/223/9
f 9/91/21 11/95/21 134/204/21 133/203/21
f 63/72/16 1/76/16 129/199/16 160/73/16
f 23/119/28 25/123/28 141/211/28 140/210/28
f 37/145/3 39/149/3 148/218/3 147/217/3
f 51/173/10 53/177/10 155/225/10 154/224/10
f 11/95/22 13/99/22 135/205/22 134/204/22
f 25/123/29 27/127/29 142/212/29 141/211/29
f 39/149/4 41/153/4 149/219/4 148/218/4
f 53/177/11 55/181/11 156/226/11 155/225/11
f 13/99/23 15/103/23 136/206/23 135/205/23
f 27/127/30 29/131/30 143/213/30 142/212/30
f 41/153/5 43/157/5 150/220/5 149/219/5
f 1/76/17 3/75/17 130/200/17 129/199/17
f 55/181/12 57/185/12 157/227/12 156/226/12
f 15/103/24 17/107/24 137/207/24 136/206/24
f 29/131/31 31/135/31 144/214/31 143/213/31
f 43/157/6 45/161/6 151/221/6 150/220/6
f 3/75/18 5/83/18 131/201/18 130/200/18
f 57/185/13 59/189/13 158/228/13 157/227/13
f 17/107/25 19/111/25 138/208/25 137/207/25
f 31/135/32 33/139/32 145/215/32 144/214/32
f 45/161/7 47/165/7 152/222/7 151/221/7
f 5/83/19 7/87/19 132/202/19 131/201/19
f 59/189/14 61/71/14 159/74/14 158/228/14
f 19/111/26 21/115/26 139/209/26 138/208/26
f 33/139/1 35/142/1 146/216/1 145/215/1
f 47/165/8 49/169/8 153/223/8 152/222/8
f 7/87/20 9/91/20 133/203/20 132/202/20
f 161/229/34 162/230/34 192/231/34 191/232/34 190/233/34 189/234/34 188/235/34 187/236/34 186/237/34 185/238/34 184/239/34 183/240/34 182/241/34 181/242/34 180/243/34 179/244/34 178/66/34 177/65/34 176/245/34 175/246/34 174/247/34 173/248/34 172/249/34 171/250/34 170/251/34 169/252/34 168/253/34 167/254/34 166/255/34 165/256/34 164/257/34 163/258/34
f 50/171/8 48/167/8 184/239/8 185/238/8
f 10/93/20 8/89/20 164/257/20 165/256/20
f 64/197/15 62/194/15 191/232/15 192/231/15
f 24/121/27 22/117/27 171/250/27 172/249/27
f 38/147/2 36/63/2 178/66/2 179/244/2
f 52/175/9 50/171/9 185/238/9 186/237/9
f 12/97/21 10/93/21 165/256/21 166/255/21
f 2/79/16 64/197/16 192/231/16 162/230/16
f 26/125/28 24/121/28 172/249/28 173/248/28
f 40/151/3 38/147/3 179/244/3 180/243/3
f 54/179/10 52/175/10 186/237/10 187/236/10
f 14/101/22 12/97/22 166/255/22 167/254/22
f 28/129/29 26/125/29 173/248/29 174/247/29
f 42/155/4 40/151/4 180/243/4 181/242/4
f 56/183/11 54/179/11 187/236/11 188/235/11
f 16/105/23 14/101/23 167/254/23 168/253/23
f 30/133/30 28/129/30 174/247/30 175/246/30
f 44/159/5 42/155/5 181/242/5 182/241/5
f 4/80/17 2/79/17 162/230/17 161/229/17
f 58/187/12 56/183/12 188/235/12 189/234/12
f 18/109/24 16/105/24 168/253/24 169/252/24
f 32/137/31 30/133/31 175/246/31 176/245/31
f 46/163/6 44/159/6 182/241/6 183/240/6
f 6/85/18 4/80/18 161/229/18 163/258/18
f 60/191/13 58/187/13 189/234/13 190/233/13
f 20/113/25 18/109/25 169/252/25 170/251/25
f 34/64/32 32/137/32 176/245/32 177/65/32
f 48/167/7 46/163/7 183/240/7 184/239/7
f 8/89/19 6/85/19 163/258/19 164/257/19
f 62/194/14 60/191/14 190/233/14 191/232/14
f 22/117/26 20/113/26 170/251/26 171/250/26
